<svg width="33" height="36" viewBox="0 0 33 36" fill="none" xmlns="http://www.w3.org/2000/svg">
<path fill-rule="evenodd" clip-rule="evenodd" d="M18.5375 4.23905C18.4345 2.80559 17.5763 1.55131 16.3748 0.90625C15.139 1.55131 14.2464 2.87726 14.2121 4.34656V4.56157V4.77659V4.91994C14.3151 6.38924 15.1733 7.64351 16.3748 8.28857C17.5763 7.67935 18.4002 6.42507 18.5375 4.95578V4.81243V4.59741V4.38239V4.23905ZM23.8928 6.46091V3.45064L23.4466 3.91651L16.5465 11.1197C16.2032 11.478 15.9285 11.9081 15.7226 12.3739C15.5166 12.8756 15.3793 13.449 15.3793 14.0582C15.3793 15.1333 15.7569 16.0651 16.3748 16.8177L22.0047 10.9405L22.1077 10.833C23.1719 9.72203 23.8585 8.18106 23.8928 6.46091ZM29.8661 10.5821L30.3123 10.1521V10.1162H27.566C27.1541 10.1162 26.7421 10.1879 26.3302 10.2596L25.6093 10.4746C25.575 10.4925 25.532 10.5104 25.4891 10.5284C25.4462 10.5463 25.4033 10.5642 25.369 10.5821L24.5451 11.0122C24.5289 11.0206 24.5108 11.0291 24.4916 11.038C24.4297 11.0669 24.3572 11.1007 24.3048 11.1555C24.2361 11.1555 24.2018 11.1913 24.1675 11.2272C23.9615 11.3705 23.7555 11.5139 23.5839 11.693L23.3779 11.9081L23.2749 12.0156L23.2063 12.0872L23.1376 12.1589L21.2838 14.0941L21.7301 14.56L22.3137 15.1692C23.1719 16.1009 24.5794 16.1009 25.472 15.1692L29.8661 10.5821ZM7.14035 18.0003C6.52243 19.2545 5.32092 20.1505 3.94777 20.258H3.81045H3.60448H3.3985H3.26119C1.8537 20.1146 0.652194 19.2545 0.0686035 18.0003C0.686523 16.746 1.88803 15.8501 3.29552 15.7426H3.43283H3.63881H3.84478C5.25226 15.7784 6.4881 16.7102 7.14035 18.0003ZM29.5571 20.258C30.9303 20.1505 32.1318 19.2545 32.7497 18.0003C32.0974 16.7102 30.8616 15.7784 29.4541 15.7426H29.2481H29.0422H28.9049C27.4974 15.8501 26.2959 16.746 25.6779 18.0003C26.2615 19.2545 27.463 20.1146 28.8705 20.258H29.0078H29.2138H29.4198H29.5571ZM16.3748 27.6403C17.5763 28.2853 18.4345 29.5396 18.5375 30.9731V31.1164V31.3315V31.5465V31.6898C18.4002 33.1591 17.5763 34.4134 16.3748 35.0226C15.1733 34.3776 14.3151 33.1233 14.2121 31.654V31.5106V31.2956V31.0806C14.2464 29.6113 15.139 28.2853 16.3748 27.6403ZM2.43729 10.1521H5.32091C6.9687 10.1879 8.44484 10.9046 9.50904 12.0156L9.57769 12.0872L15.2076 18.0003C14.4867 18.6453 13.5942 19.0395 12.5643 19.0395C11.9807 19.0395 11.4315 18.8962 10.9508 18.6812C10.5046 18.4661 10.0926 18.1794 9.74934 17.8211L2.88356 10.5821L2.43729 10.1521ZM9.26874 3.91651L8.8568 3.45064H8.82247V6.3534C8.82247 6.78343 8.89113 7.21347 8.95979 7.64351L9.16576 8.39608C9.18292 8.43191 9.20009 8.47671 9.21725 8.52151L9.21727 8.52154C9.23443 8.56632 9.25159 8.6111 9.26874 8.64693L9.68069 9.50701C9.6888 9.52393 9.6969 9.54284 9.70545 9.56282L9.70546 9.56282C9.73314 9.62745 9.76556 9.70311 9.81801 9.75786C9.81801 9.82954 9.85233 9.86537 9.88666 9.90121C10.024 10.1162 10.1613 10.3312 10.3329 10.5104L10.5389 10.7254L10.6419 10.833L10.6762 10.8688L10.7449 10.9405L12.5986 12.8398L13.0449 12.3739L13.6285 11.7647C14.5211 10.8688 14.5211 9.3995 13.6285 8.46775L9.26874 3.91651ZM8.8568 32.5499V29.5396C8.89113 27.8195 9.57771 26.2785 10.6419 25.1676L10.7106 25.0959L16.3748 19.1829C16.9927 19.9354 17.3704 20.8672 17.3704 21.9423C17.3704 22.5515 17.233 23.1249 17.0271 23.6266C16.8211 24.0925 16.5465 24.5225 16.2032 24.8809L9.26875 32.084L8.8568 32.5499ZM2.88356 25.3826L2.43729 25.8485V25.8843H5.1836C5.59555 25.8843 6.00749 25.8126 6.41944 25.741L7.14034 25.5259C7.17468 25.508 7.21759 25.4901 7.2605 25.4722L7.26056 25.4722C7.30345 25.4542 7.34633 25.4363 7.38065 25.4184L8.20454 24.9884C8.22075 24.9799 8.23887 24.9715 8.25801 24.9625C8.31991 24.9336 8.39239 24.8998 8.44484 24.845C8.5135 24.845 8.54783 24.8092 8.58216 24.7734C8.78813 24.63 8.9941 24.4867 9.16575 24.3075L9.37172 24.0925L9.47471 23.985L9.54337 23.9133L9.61202 23.8416L11.4315 21.9064L10.9852 21.4406L10.4016 20.8314C9.54337 19.8996 8.13588 19.8996 7.24333 20.8314L2.88356 25.3826ZM30.3123 25.8485H27.4287C25.7809 25.8126 24.3048 25.0959 23.2406 23.985L23.1719 23.9133L17.5077 18.0003C18.2286 17.3552 19.1211 16.961 20.151 16.961C20.7346 16.961 21.2838 17.1044 21.7644 17.3194C22.2107 17.5344 22.6227 17.8211 22.966 18.1795L29.8661 25.3826L30.3123 25.8485ZM23.4466 32.084L23.8928 32.5499H23.9272V29.683C23.9272 29.2529 23.8585 28.8229 23.7899 28.3928L23.5839 27.6403C23.5667 27.6044 23.5495 27.5596 23.5324 27.5149C23.5152 27.4701 23.4981 27.4253 23.4809 27.3894L23.0689 26.5294C23.0608 26.5124 23.0527 26.4935 23.0442 26.4735C23.0165 26.4089 22.9841 26.3333 22.9316 26.2785C22.9316 26.2068 22.8973 26.171 22.863 26.1351L22.863 26.1351C22.7256 25.9201 22.5883 25.7051 22.4167 25.5259L22.2107 25.3109L22.1077 25.2034L22.0391 25.1317L21.9704 25.0601L20.1167 23.1249L19.6704 23.5908L19.0868 24.2C18.1942 25.0959 18.1942 26.5652 19.0868 27.4969L23.4466 32.084Z" fill="#F28627"/>
</svg>
